<svg width="23" height="25" xmlns="http://www.w3.org/2000/svg" xmlns:xlink="http://www.w3.org/1999/xlink" xml:space="preserve" overflow="hidden"><defs><clipPath id="clip0"><rect x="67" y="183" width="23" height="25"/></clipPath></defs><g clip-path="url(#clip0)" transform="translate(-67 -183)"><path d="M1.92773 0C7.25624 0 12.5854 0 17.9139 0 17.9277 0.00751553 17.9402 0.0194151 17.9546 0.0225466 19.2423 0.339451 19.8404 1.10541 19.8404 2.43691 19.8404 5.00722 19.8404 7.57753 19.8404 10.1478 19.8404 10.7961 19.8379 11.4449 19.8441 12.0931 19.8448 12.1676 19.8742 12.2885 19.9218 12.3079 20.3539 12.482 20.6414 12.7902 20.8055 13.2229 20.8493 13.2154 20.88 13.2136 20.9088 13.2048 22.0462 12.8578 22.9706 13.5286 22.9762 14.7123 22.9812 15.7281 22.9931 16.744 22.9718 17.7592 22.9399 19.3218 22.5203 20.7635 21.5376 22.0067 19.9869 23.9683 17.4016 24.6666 15.12 23.2706 15.0286 23.2148 14.8989 23.2004 14.7868 23.2004 12.0837 23.1967 9.38063 23.1973 6.67755 23.1973 5.34918 23.1973 4.02143 23.1961 2.69306 23.1973 2.26468 23.1973 1.88953 23.062 1.69225 22.6706 1.58202 22.452 1.53192 22.1796 1.53192 21.9316 1.52315 16.2442 1.52503 10.5568 1.52503 4.86881L1.52503 4.51683C1.34215 4.51683 1.18683 4.52435 1.03276 4.51558 0.436527 4.48176 0.0144048 4.04461 0.00688924 3.45088 0.00125259 3.02124-0.00688924 2.59098 0.00939441 2.16197 0.0407091 1.36282 0.393939 0.73339 1.08474 0.327552 1.34152 0.177241 1.64527 0.107096 1.92773 0ZM15.8189 0.937562 15.5121 0.937562C13.4415 0.937562 11.371 0.937562 9.30047 0.937562 6.97191 0.937562 4.64397 0.936936 2.31541 0.937562 1.47242 0.937562 0.945704 1.46929 0.943825 2.31666 0.943199 2.62918 0.943825 2.9417 0.943825 3.25422 0.943825 3.58115 0.944452 3.58303 1.26699 3.58303 3.025 3.58303 4.78301 3.58303 6.54102 3.58428 6.64999 3.58428 6.76147 3.58428 6.86732 3.6062 7.08464 3.64942 7.23057 3.84357 7.22556 4.06402 7.22055 4.28448 7.0671 4.46924 6.8479 4.50619 6.75646 4.52122 6.66126 4.52122 6.56795 4.52122 5.29406 4.52184 4.02081 4.52122 2.74693 4.52247 2.65674 4.52247 2.56718 4.52999 2.46259 4.53437L2.46259 4.79679C2.46259 10.5086 2.46259 16.2198 2.46259 21.9316 2.46259 22.2504 2.47261 22.2604 2.79139 22.2604 6.39321 22.2604 9.99503 22.2604 13.5975 22.2604 13.6714 22.2604 13.7447 22.2529 13.8361 22.2478 13.414 21.7111 13.0081 21.1988 12.6054 20.6834 11.7931 19.6431 10.9833 18.6003 10.1716 17.5594 9.78585 17.0646 9.60735 16.5154 9.75954 15.8941 9.92301 15.2258 10.3151 14.7367 10.9896 14.5407 11.6434 14.3509 12.1833 14.5939 12.6342 15.0724 12.8165 15.2659 12.9969 15.4607 13.1785 15.6542 13.3357 15.8221 13.4929 15.9899 13.692 16.2029 13.692 16.0789 13.692 16.0194 13.692 15.9599 13.6908 14.7956 13.6889 13.6313 13.6889 12.467 13.6889 11.2244 13.687 9.9825 13.692 8.73993 13.6939 8.23326 13.8831 7.80488 14.3052 7.51177 14.8006 7.16731 15.3386 7.1241 15.8809 7.38777 16.4145 7.64705 16.6813 8.09861 16.6983 8.68357 16.7158 9.29233 16.7051 9.90234 16.707 10.5117 16.7076 10.8073 16.707 11.1023 16.707 11.4142 17.6364 11.19 18.3304 11.4436 18.7268 12.3299 18.9084 12.3355 18.9034 12.2184 18.9034 12.0956 18.9022 8.81384 18.9041 5.53268 18.9016 2.2509 18.9009 1.50311 18.3492 0.939441 17.6321 0.937562 16.9124 0.935683 16.3663 1.4887 16.3525 2.24088 16.3463 2.60037 16.3525 2.95987 16.3507 3.31936 16.3482 4.0991 15.9279 4.51934 15.1469 4.51996 13.811 4.52184 12.4745 4.52059 11.1386 4.51996 11.0528 4.51996 10.9658 4.51934 10.8819 4.50368 10.6664 4.46422 10.5111 4.27133 10.5098 4.05463 10.5092 3.84795 10.6526 3.65631 10.8562 3.60808 10.9389 3.58867 11.0265 3.58491 11.1117 3.58428 11.4399 3.58178 11.7681 3.58303 12.0962 3.58303 13.1121 3.58303 14.1279 3.57864 15.1432 3.58616 15.3467 3.58741 15.425 3.51852 15.4156 3.31435 15.4037 3.05694 15.4206 2.79828 15.4112 2.54088 15.3906 1.9841 15.4576 1.44987 15.8183 0.936936ZM14.6258 12.757 14.6321 12.757C14.6321 14.0146 14.6346 15.2722 14.6296 16.5304 14.629 16.7164 14.619 16.9087 14.5714 17.0866 14.4661 17.4811 14.0822 17.6521 13.7234 17.4592 13.5411 17.3615 13.3739 17.2218 13.2286 17.0728 12.787 16.6193 12.3643 16.1484 11.9259 15.6918 11.51 15.2584 10.9908 15.353 10.7409 15.9016 10.5587 16.3024 10.657 16.6588 10.9176 16.9926 11.9891 18.3654 13.0495 19.7471 14.1342 21.1099 14.4236 21.4737 14.7586 21.8119 15.1162 22.1094 16.5454 23.2994 18.398 23.3802 19.8798 22.3167 21.1005 21.4406 21.7349 20.1942 21.9303 18.7425 22.0443 17.8964 22.0142 17.0296 22.0362 16.1722 22.0493 15.6649 22.0456 15.1563 22.0349 14.649 22.0261 14.2175 21.723 13.9751 21.3234 14.0603 21.0579 14.1167 20.9088 14.297 20.8913 14.6233 20.875 14.9271 20.8913 15.2327 20.8763 15.5365 20.8637 15.7945 20.6614 15.978 20.4191 15.9793 20.1873 15.9805 19.9938 15.8095 19.9575 15.5634 19.945 15.4789 19.9468 15.3924 19.9462 15.3066 19.9431 14.7755 19.95 14.2438 19.9356 13.7133 19.9268 13.3933 19.7458 13.2029 19.4621 13.1666 19.0782 13.1177 18.8107 13.3426 18.8039 13.7415 18.7945 14.2958 18.802 14.8507 18.7995 15.4056 18.7982 15.7576 18.6078 15.9843 18.3216 15.9793 18.0417 15.9743 17.8632 15.7582 17.8625 15.4156 17.8613 14.619 17.8638 13.8217 17.8607 13.025 17.8607 12.9092 17.8519 12.7902 17.8243 12.6781 17.7586 12.4113 17.555 12.2691 17.2701 12.2741 16.9882 12.2785 16.7878 12.4313 16.7371 12.7044 16.7089 12.8566 16.707 13.0144 16.7064 13.1703 16.7026 13.9513 16.7083 14.7329 16.7008 15.5139 16.6983 15.777 16.511 15.963 16.2661 15.9786 16.0294 15.9943 15.8189 15.8189 15.7789 15.5647 15.7657 15.4807 15.7682 15.3937 15.7682 15.3079 15.7682 13.1985 15.7682 11.0892 15.7676 8.97981 15.7676 8.87083 15.7701 8.75998 15.7563 8.65225 15.7288 8.43368 15.6154 8.27648 15.3999 8.20257 14.9791 8.05727 14.629 8.31907 14.6271 8.79755 14.6221 10.1178 14.6252 11.438 14.6252 12.7582Z" fill="#FFFFFF" transform="matrix(1 0 0 1.04155 67.0081 183)"/><path d="M4.27571 8.00842C4.27571 7.7197 4.27258 7.43098 4.27634 7.14289 4.28385 6.59363 4.65149 6.2072 5.19574 6.19718 5.79635 6.18653 6.39697 6.18653 6.99758 6.19718 7.52242 6.2072 7.89632 6.57233 7.91072 7.09967 7.92638 7.7078 7.92701 8.31656 7.91072 8.92469 7.89632 9.45391 7.5268 9.81027 6.99383 9.82092 6.39321 9.83282 5.79259 9.83282 5.19198 9.82092 4.64272 9.80965 4.28385 9.42823 4.27696 8.87459 4.27321 8.58587 4.27696 8.29714 4.27696 8.00905ZM6.96377 8.8702 6.96377 7.14727 5.22517 7.14727 5.22517 8.8702 6.96377 8.8702Z" fill="#FFFFFF" transform="matrix(1 0 0 1.04155 67.0081 183)"/><path d="M8.35038 11.5777C9.52092 11.5777 10.6915 11.5764 11.8614 11.5789 12.1626 11.5796 12.3718 11.7731 12.3762 12.0386 12.38 12.3023 12.1701 12.5021 11.8739 12.5152 11.8269 12.5171 11.7806 12.5152 11.7336 12.5159 11.4919 12.5159 11.2501 12.5159 11.0077 12.5159 8.99484 12.5159 6.9813 12.5159 4.96839 12.5159 4.8901 12.5159 4.81182 12.5196 4.73416 12.5127 4.46986 12.4902 4.27446 12.2854 4.27759 12.0393 4.28072 11.7894 4.478 11.5915 4.7448 11.5808 4.93207 11.5733 5.11933 11.5783 5.30659 11.5783 6.32119 11.5783 7.33516 11.5783 8.34975 11.5783Z" fill="#FFFFFF" transform="matrix(1 0 0 1.04155 67.0081 183)"/><path d="M7.24873 19.6412C8.05352 19.6412 8.85768 19.6431 9.66247 19.64 9.88543 19.6387 10.0645 19.7095 10.1616 19.9174 10.3101 20.2343 10.0808 20.5706 9.70756 20.5769 9.26226 20.5844 8.81697 20.5788 8.37167 20.5788 7.18422 20.5788 5.99739 20.5807 4.80994 20.5775 4.40661 20.5763 4.1636 20.2337 4.32895 19.9061 4.42727 19.7107 4.59763 19.6393 4.81182 19.64 5.62412 19.6431 6.43642 19.6412 7.24873 19.6412Z" fill="#FFFFFF" transform="matrix(1 0 0 1.04155 67.0081 183)"/><path d="M6.68632 15.1977C6.06942 15.1977 5.45314 15.1995 4.83624 15.1977 4.49303 15.1964 4.27947 15.0167 4.27759 14.7354 4.27571 14.4567 4.49617 14.2626 4.83061 14.2613 6.06378 14.2588 7.29695 14.2588 8.53013 14.2613 8.86895 14.262 9.07876 14.4536 9.07375 14.7405 9.06874 15.0179 8.86457 15.1951 8.53576 15.1964 7.91949 15.1989 7.30259 15.197 6.68569 15.197Z" fill="#FFFFFF" transform="matrix(1 0 0 1.04155 67.0081 183)"/><path d="M11.2802 7.13161C10.6877 7.13161 10.0952 7.13286 9.50214 7.13161 9.15078 7.13036 8.9535 6.96126 8.9535 6.66753 8.9535 6.37881 9.1583 6.19655 9.50214 6.19593 10.6952 6.19342 11.8883 6.19342 13.0808 6.19593 13.4165 6.19655 13.6363 6.38883 13.6363 6.66753 13.6363 6.94748 13.4196 7.13099 13.0808 7.13224 12.4802 7.13412 11.8802 7.13224 11.2796 7.13224Z" fill="#FFFFFF" transform="matrix(1 0 0 1.04155 67.0081 183)"/><path d="M6.4502 16.9557C6.98819 16.9557 7.5268 16.9532 8.06479 16.9569 8.40675 16.9594 8.62031 17.1448 8.61781 17.4254 8.6153 17.7072 8.40236 17.8913 8.05978 17.8926 6.98318 17.8951 5.90721 17.8957 4.83061 17.8926 4.49241 17.8913 4.27634 17.7003 4.27759 17.4204 4.27884 17.1398 4.49053 16.9594 4.83562 16.9575 5.3736 16.9538 5.91222 16.9569 6.4502 16.9569Z" fill="#FFFFFF" transform="matrix(1 0 0 1.04155 67.0081 183)"/><path d="M10.9063 8.88711C11.366 8.88711 11.8257 8.88398 12.286 8.88837 12.6292 8.89212 12.8415 9.07625 12.8409 9.35621 12.8397 9.63679 12.6261 9.82217 12.2841 9.82342 11.3491 9.82656 10.4134 9.82656 9.47834 9.82342 9.20089 9.82217 9.01425 9.68689 8.96352 9.47082 8.91467 9.26352 8.99922 9.04306 9.18961 8.95538 9.29107 8.90841 9.41383 8.89212 9.52781 8.89025 9.98751 8.88336 10.4472 8.88711 10.9069 8.88774Z" fill="#FFFFFF" transform="matrix(1 0 0 1.04155 67.0081 183)"/><path d="M9.33554 4.04273C9.34118 4.30014 9.1439 4.50807 8.88649 4.51558 8.61969 4.52372 8.40048 4.31517 8.40048 4.05275 8.40048 3.80035 8.60904 3.59242 8.86394 3.58992 9.12135 3.58741 9.32928 3.7872 9.33492 4.04273Z" fill="#FFFFFF" transform="matrix(1 0 0 1.04155 67.0081 183)"/></g></svg>