<svg width="29" height="30" xmlns="http://www.w3.org/2000/svg" xmlns:xlink="http://www.w3.org/1999/xlink" xml:space="preserve" overflow="hidden"><defs><clipPath id="clip0"><rect x="1050" y="330" width="29" height="30"/></clipPath></defs><g clip-path="url(#clip0)" transform="translate(-1050 -330)"><path d="M6.79781 0 22.2033 0C22.8579 0.22623 23.1257 0.693989 23.0842 1.37377 23.0634 1.71913 23.0809 2.06776 23.0809 2.43716 23.2164 2.43716 23.3191 2.43716 23.4208 2.43716 24.5727 2.43716 25.7235 2.43169 26.8754 2.43934 27.8579 2.44481 28.6787 3.08743 28.9333 4.03388 28.953 4.10601 28.9771 4.17705 29 4.24809L29 20.8995C28.9585 21.023 28.9191 21.1464 28.8754 21.2689 28.5596 22.1596 27.7672 22.6787 26.7104 22.6798 23.577 22.682 20.4437 22.6798 17.3104 22.6809 17.1934 22.6809 17.0776 22.6929 16.9443 22.6995 17.0557 23.5169 17.1617 24.2973 17.2689 25.0885 17.4339 25.0885 17.565 25.0863 17.6973 25.0885 18.1486 25.0951 18.4557 25.3093 18.5825 25.7388 18.7923 26.4525 18.9978 27.1683 19.1825 27.8896 19.3311 28.4699 18.9322 28.9934 18.3355 28.9945 15.7781 29.0011 13.2197 29.0011 10.6623 28.9945 10.0787 28.9923 9.67432 28.4798 9.8153 27.9126 10 27.1727 10.212 26.4383 10.4284 25.7071 10.5454 25.3137 10.8634 25.0984 11.2809 25.0896 11.4284 25.0863 11.5749 25.0896 11.7355 25.0896 11.8448 24.2743 11.9486 23.494 12.0568 22.6809 11.9104 22.6809 11.7978 22.6809 11.6863 22.6809 10.1104 22.6809 8.53443 22.6874 6.95847 22.6743 6.70601 22.6721 6.57486 22.7519 6.45246 22.9694 5.76612 24.1836 5.07213 25.3956 4.36066 26.5956 3.65355 27.788 2.17268 28.1301 1.04918 27.3847 0.0393443 26.7137-0.29071 25.3847 0.298361 24.3104 0.622951 23.718 0.970492 23.1366 1.31585 22.5377 0.455738 22.1126 0.00218579 21.4481 0.00218579 20.5049 0 15.2098 0 9.91585 0.00218579 4.62076 0.00218579 3.35956 0.92459 2.44262 2.18361 2.43825 3.31585 2.43497 4.44918 2.43825 5.58142 2.43825 5.68306 2.43825 5.78579 2.43825 5.92131 2.43825 5.92131 2.06776 5.9388 1.71913 5.91803 1.37377 5.87541 0.692896 6.14426 0.227322 6.79891 0.0010929ZM23.0973 4.13661 23.4208 4.13661C24.4492 4.13661 25.4787 4.13661 26.5071 4.13661 27.0601 4.13661 27.2995 4.37596 27.3005 4.92896 27.3005 9.73333 27.3005 14.5366 27.3005 19.341 27.3005 19.8962 27.0689 20.1257 26.5049 20.1301 26.165 20.1333 25.8251 20.1301 25.4852 20.1301 23.7672 20.1301 22.0503 20.1301 20.3322 20.1301 19.9301 20.1301 19.7213 19.9792 19.7257 19.7005 19.7301 19.423 19.9366 19.282 20.3443 19.2809 20.8634 19.2798 21.3825 19.2809 21.9016 19.2809 22.0022 19.2809 22.1027 19.2721 22.2142 19.2667L22.2142 4.26995 6.79563 4.26995 6.79563 6.25574C6.90164 6.20109 6.97596 6.16503 7.04809 6.12459 11.2197 3.78798 16.4514 6.67104 16.7016 11.4437 16.9279 15.7432 12.9814 19.0754 8.78361 18.1158 8.45246 18.0404 8.2929 18.1005 8.15738 18.3956 8.02295 18.6863 7.84481 18.9563 7.6612 19.282 7.85465 19.282 7.97596 19.282 8.09727 19.282 11.3628 19.282 14.6284 19.282 17.894 19.282 17.9978 19.282 18.1027 19.2776 18.2044 19.2918 18.4415 19.3246 18.5825 19.4612 18.5814 19.7071 18.5814 19.9519 18.4448 20.0907 18.2044 20.1213 18.1016 20.1344 17.9967 20.1311 17.894 20.1311 14.694 20.1311 11.4951 20.1333 8.29508 20.1268 8.04262 20.1268 7.86776 20.1279 7.84699 20.4579 7.83607 20.6317 7.70273 20.8011 7.61312 20.9661 7.4623 21.2437 7.30273 21.5158 7.1235 21.8306L7.51366 21.8306C13.8842 21.8306 20.2546 21.8306 26.6251 21.8306 26.729 21.8306 26.8328 21.8306 26.9366 21.824 27.6415 21.7749 28.1475 21.2525 28.1475 20.5432 28.1508 15.2197 28.1519 9.89727 28.1475 4.57377 28.1475 3.83497 27.5913 3.2929 26.8492 3.28852 25.6601 3.28306 24.471 3.28634 23.282 3.28852 23.2262 3.28852 23.1705 3.29617 23.0984 3.30164L23.0984 4.13661ZM2.56393 4.99344 2.56393 19.247C3.14208 19.3497 3.16284 19.3399 3.42951 18.8787 3.50929 18.7399 3.59016 18.6011 3.66995 18.4623 3.9235 18.023 4.30601 17.812 4.80984 17.7967 4.88852 17.7945 5 17.7552 5.03716 17.6951 5.2776 17.3038 5.50273 16.9016 5.73333 16.5016 5.68852 16.4514 5.65902 16.4153 5.62732 16.3814 4.24044 14.953 3.6306 13.2361 3.74863 11.2579 3.76721 10.9399 3.83279 10.623 3.90273 10.3104 3.95628 10.0721 4.13989 9.97377 4.37705 10.0142 4.62076 10.0557 4.72568 10.2208 4.71475 10.4612 4.71038 10.5454 4.69399 10.6295 4.6765 10.7126 3.9847 14.0546 6.57158 17.3257 9.99563 17.4361 13.4809 17.5486 16.212 14.5814 15.812 11.1169 15.3847 7.41421 11.4448 5.12568 8.01858 6.59016 6.97486 7.03607 6.14098 7.73552 5.51148 8.67869 5.29508 9.00328 5.07213 9.08743 4.84044 8.9388 4.59563 8.78142 4.57596 8.53443 4.81202 8.20219 5.00765 7.92568 5.19235 7.62295 5.44699 7.41093 5.8623 7.06557 5.97814 6.66011 5.92896 6.14645 5.8918 5.76721 5.92131 5.38142 5.92131 4.99344L2.56393 4.99344ZM26.4372 5 23.1038 5 23.1038 19.2634 26.4372 19.2634 26.4372 5ZM6.77158 3.37486 22.2295 3.37486C22.2295 2.68306 22.2295 2.01311 22.2295 1.34426 22.2295 0.88306 22.1945 0.84918 21.729 0.84918 16.9082 0.84918 12.0874 0.84918 7.26557 0.84918 7.20874 0.84918 7.15191 0.851366 7.09617 0.84918 6.88743 0.84153 6.77377 0.940984 6.77268 1.14973 6.77049 1.88525 6.77268 2.62076 6.77268 3.37486ZM2.48525 26.9169C2.91694 26.9038 3.34973 26.6481 3.63825 26.1497 4.74208 24.2404 5.8459 22.3311 6.94754 20.4208 7.13005 20.1049 7.07978 19.9322 6.75956 19.7454 6.20656 19.4219 5.65027 19.1027 5.09399 18.7836 4.70929 18.5628 4.57049 18.6011 4.34426 18.9923 3.69727 20.1104 3.05246 21.2284 2.40656 22.3464 1.94973 23.1377 1.4776 23.9224 1.04044 24.7246 0.492896 25.729 1.21093 26.9235 2.48525 26.9169ZM5.90492 3.28743C4.68962 3.28743 3.51038 3.28743 2.33115 3.28743 1.34208 3.28743 0.84918 3.77596 0.84918 4.75956 0.84918 9.95956 0.84918 15.1596 0.84918 20.3596 0.84918 20.4536 0.845902 20.5486 0.852459 20.6426 0.889618 21.1727 1.26448 21.6306 1.77049 21.7464 1.91694 21.4929 2.06776 21.2328 2.21749 20.9727 2.3694 20.7082 2.52131 20.4437 2.6918 20.1475 2.57377 20.1399 2.51038 20.1344 2.44699 20.1311 1.92131 20.1082 1.69945 19.8809 1.69945 19.3508 1.69945 14.5377 1.69945 9.72459 1.69945 4.91148 1.69945 4.38251 1.94754 4.1377 2.48197 4.13661 3.52022 4.13552 4.55847 4.13661 5.59672 4.13661 5.69617 4.13661 5.79563 4.13661 5.90492 4.13661L5.90492 3.28743ZM10.6317 28.1333 18.3683 28.1333C18.1617 27.3902 17.9618 26.6689 17.7639 25.9552L11.2339 25.9552C11.0317 26.6852 10.835 27.4 10.6317 28.1333ZM12.5945 25.071 16.4044 25.071C16.2962 24.2689 16.1913 23.4863 16.0842 22.694L12.9137 22.694C12.8066 23.4874 12.7016 24.2689 12.5934 25.071ZM6.39016 17.0678C6.18251 17.4273 5.97377 17.7891 5.74973 18.177 6.14536 18.4055 6.5224 18.624 6.91913 18.8536 7.14208 18.4678 7.35082 18.1071 7.55847 17.7464 7.15738 17.5137 6.78688 17.2984 6.39016 17.0678Z" fill="#FFFFFF" transform="matrix(1 0 0 1.03448 1050 330)"/><path d="M18.5519 7.08634C17.7694 7.08634 16.9869 7.08743 16.2055 7.08634 15.8907 7.08634 15.7038 6.93552 15.6929 6.68525 15.682 6.42295 15.8776 6.24044 16.1989 6.24044 17.7541 6.23716 19.3093 6.23716 20.8645 6.24044 21.1913 6.24044 21.3792 6.41311 21.3738 6.67978 21.3672 6.93989 21.1924 7.08634 20.871 7.08743 20.0984 7.08962 19.3257 7.08743 18.5519 7.08743Z" fill="#FFFFFF" transform="matrix(1 0 0 1.03448 1050 330)"/><path d="M18.5519 17.282C17.7694 17.282 16.9869 17.2831 16.2055 17.282 15.8918 17.282 15.7038 17.1301 15.6929 16.8798 15.682 16.6175 15.8776 16.4361 16.1989 16.435 17.7541 16.4317 19.3093 16.4317 20.8645 16.435 21.1902 16.435 21.3792 16.6087 21.3727 16.8743 21.3661 17.1344 21.1913 17.2809 20.8699 17.282 20.0973 17.2842 19.3246 17.282 18.5508 17.282Z" fill="#FFFFFF" transform="matrix(1 0 0 1.03448 1050 330)"/><path d="M19.2852 14.7333C18.7574 14.7333 18.2306 14.7355 17.7027 14.7333 17.3814 14.7322 17.2066 14.588 17.1978 14.329 17.1902 14.0623 17.3781 13.8885 17.7027 13.8863 18.7574 13.882 19.812 13.882 20.8678 13.8863 21.1924 13.8874 21.3814 14.0623 21.3727 14.329 21.3639 14.588 21.1891 14.7322 20.8678 14.7333 20.3399 14.7355 19.8131 14.7333 19.2852 14.7333Z" fill="#FFFFFF" transform="matrix(1 0 0 1.03448 1050 330)"/><path d="M19.3104 9.63497C18.7923 9.63497 18.2743 9.63716 17.7563 9.63497 17.4361 9.63279 17.2612 9.48743 17.2546 9.22623 17.2481 8.96066 17.4372 8.78907 17.7628 8.78798 18.7989 8.78361 19.835 8.78361 20.871 8.78798 21.1945 8.78907 21.3825 8.96612 21.3716 9.23388 21.3617 9.4918 21.1858 9.63388 20.8634 9.63497 20.3454 9.63716 19.8273 9.63497 19.3093 9.63497Z" fill="#FFFFFF" transform="matrix(1 0 0 1.03448 1050 330)"/><path d="M19.5191 12.1836C19.0579 12.1836 18.5967 12.1858 18.1344 12.1836 17.8339 12.1814 17.6634 12.0361 17.6514 11.7869 17.6393 11.5279 17.8186 11.341 18.1191 11.3388 19.0514 11.3322 19.9836 11.3322 20.9158 11.3388 21.2011 11.341 21.376 11.5235 21.3716 11.7716 21.3683 12.0251 21.1978 12.1803 20.9027 12.1836 20.4415 12.188 19.9803 12.1847 19.518 12.1847Z" fill="#FFFFFF" transform="matrix(1 0 0 1.03448 1050 330)"/><path d="M10.2251 7.62186C12.5333 7.62951 14.3934 9.49836 14.388 11.8066 14.3825 14.1071 12.5027 15.9781 10.2011 15.9716 7.89727 15.965 6.03279 14.0885 6.04044 11.7825 6.04809 9.47213 7.91694 7.61312 10.2251 7.62077ZM6.89071 11.788C6.88743 13.6251 8.37923 15.1213 10.2142 15.1224 12.0339 15.1224 13.5311 13.635 13.5388 11.8164 13.5464 9.97596 12.0645 8.47869 10.2273 8.47213 8.38798 8.46448 6.89399 9.94973 6.89071 11.7891Z" fill="#FFFFFF" transform="matrix(1 0 0 1.03448 1050 330)"/><path d="M8.03169 2.54645C7.79563 2.5388 7.61421 2.33661 7.62842 2.09727 7.64153 1.86995 7.83169 1.69399 8.05683 1.70164 8.2929 1.70929 8.47541 1.91148 8.46011 2.15082 8.4459 2.37814 8.25574 2.5541 8.03169 2.54645Z" fill="#FFFFFF" transform="matrix(1 0 0 1.03448 1050 330)"/><path d="M9.74098 2.54645C9.50492 2.54645 9.31803 2.34754 9.32678 2.1082 9.33443 1.87978 9.51912 1.70055 9.74535 1.70164 9.98142 1.70273 10.1694 1.90055 10.1607 2.13989 10.1519 2.36721 9.96612 2.54754 9.74098 2.54645Z" fill="#FFFFFF" transform="matrix(1 0 0 1.03448 1050 330)"/><path d="M11.4415 1.70164C11.6667 1.70164 11.8525 1.88197 11.8601 2.10929 11.8678 2.34863 11.6798 2.54645 11.4437 2.54645 11.2077 2.54645 11.0197 2.35082 11.0262 2.11038 11.0328 1.88197 11.2164 1.70164 11.4426 1.70164Z" fill="#FFFFFF" transform="matrix(1 0 0 1.03448 1050 330)"/></g></svg>